# xmcd CD database file
#
# Track frame offsets:
#	150
#	37547
#	79208
#	96435
#	131332
#	138571
#	173624
#
# Disc length: 2609 seconds
#
# Revision: 0
# Processed by: cddbd v1.5.1PL2 Copyright (c) Steve Scherf et al.
# Submitted via: CDex 1.51
#
DISCID=4f0a2f07
DTITLE=Miles Davis - Tanglewood Storm
DYEAR=1900
DGENRE=Jazz
TTITLE0=Directions
TTITLE1=Bitches Brew
TTITLE2=The Mask
TTITLE3=It's About That Time
TTITLE4=Sanctuary
TTITLE5=Spanish Key
TTITLE6=Miles Runs The Voodoo Down
EXTD=
EXTT0=
EXTT1=
EXTT2=
EXTT3=
EXTT4=
EXTT5=
EXTT6=
PLAYORDER=
